<?xml version="1.0" encoding="utf-8"?>
<!-- Generator: Adobe Illustrator 24.0.1, SVG Export Plug-In . SVG Version: 6.00 Build 0)  -->
<svg version="1.1" id="Capa_1" xmlns="http://www.w3.org/2000/svg" xmlns:xlink="http://www.w3.org/1999/xlink" x="0px" y="0px"
	 viewBox="0 0 578 116.57" style="enable-background:new 0 0 578 116.57;" xml:space="preserve">
<style type="text/css">
	.st0{fill:#F9F9F9;}
</style>
<g>
	<path class="st0" d="M164.9,71.09c-1.2-0.49-2.16-1.22-2.88-2.19s-1.1-2.13-1.14-3.49h5.38c0.08,0.77,0.34,1.35,0.8,1.76
		c0.45,0.4,1.04,0.61,1.77,0.61c0.75,0,1.34-0.17,1.77-0.52c0.43-0.34,0.65-0.82,0.65-1.43c0-0.51-0.17-0.94-0.52-1.27
		c-0.34-0.33-0.77-0.61-1.27-0.83c-0.5-0.22-1.22-0.46-2.14-0.74c-1.34-0.41-2.43-0.83-3.28-1.24c-0.85-0.41-1.58-1.02-2.19-1.83
		c-0.61-0.81-0.92-1.86-0.92-3.16c0-1.93,0.7-3.44,2.1-4.53c1.4-1.09,3.22-1.64,5.46-1.64c2.28,0,4.13,0.55,5.52,1.64
		c1.4,1.09,2.15,2.61,2.24,4.56h-5.46c-0.04-0.67-0.29-1.2-0.74-1.58c-0.45-0.38-1.03-0.58-1.74-0.58c-0.61,0-1.1,0.16-1.48,0.49
		c-0.37,0.32-0.56,0.79-0.56,1.4c0,0.67,0.31,1.19,0.95,1.57c0.63,0.37,1.61,0.78,2.95,1.21c1.34,0.45,2.43,0.89,3.26,1.3
		c0.84,0.41,1.56,1.01,2.17,1.8c0.61,0.79,0.92,1.8,0.92,3.04c0,1.18-0.3,2.25-0.9,3.22s-1.47,1.73-2.61,2.3s-2.49,0.86-4.05,0.86
		C167.46,71.83,166.1,71.58,164.9,71.09z"/>
	<path class="st0" d="M179.59,58.9c0.64-1.28,1.51-2.26,2.61-2.95c1.1-0.69,2.33-1.03,3.69-1.03c1.16,0,2.18,0.24,3.06,0.71
		c0.88,0.47,1.55,1.09,2.02,1.86v-2.33h5.05v16.48h-5.05v-2.33c-0.49,0.77-1.18,1.39-2.05,1.86s-1.89,0.71-3.06,0.71
		c-1.34,0-2.56-0.35-3.66-1.05c-1.1-0.7-1.97-1.69-2.61-2.98c-0.64-1.29-0.96-2.78-0.96-4.47C178.63,61.66,178.95,60.17,179.59,58.9
		z M189.93,60.4c-0.7-0.73-1.55-1.09-2.55-1.09c-1,0-1.86,0.36-2.55,1.08c-0.7,0.72-1.05,1.71-1.05,2.97c0,1.26,0.35,2.26,1.05,3
		c0.7,0.74,1.55,1.11,2.55,1.11c1,0,1.86-0.36,2.55-1.09c0.7-0.73,1.05-1.72,1.05-2.98C190.98,62.12,190.63,61.13,189.93,60.4z"/>
	<path class="st0" d="M214.35,56.84c1.15,1.25,1.73,2.97,1.73,5.15v9.63h-5.02v-8.95c0-1.1-0.29-1.96-0.86-2.57s-1.34-0.92-2.3-0.92
		c-0.97,0-1.73,0.31-2.3,0.92c-0.57,0.61-0.86,1.47-0.86,2.57v8.95h-5.05V55.14h5.05v2.19c0.51-0.73,1.2-1.3,2.07-1.73
		c0.87-0.42,1.84-0.64,2.92-0.64C211.66,54.97,213.2,55.59,214.35,56.84z"/>
	<path class="st0" d="M219.96,52.65c-0.56-0.52-0.84-1.17-0.84-1.93c0-0.79,0.28-1.44,0.84-1.96c0.56-0.52,1.29-0.78,2.17-0.78
		c0.87,0,1.58,0.26,2.14,0.78c0.56,0.52,0.84,1.18,0.84,1.96c0,0.77-0.28,1.41-0.84,1.93c-0.56,0.52-1.28,0.78-2.14,0.78
		C221.25,53.43,220.52,53.17,219.96,52.65z M224.64,55.14v16.48h-5.05V55.14H224.64z"/>
	<path class="st0" d="M237.49,67.34v4.28h-2.57c-1.83,0-3.26-0.45-4.28-1.34c-1.02-0.9-1.54-2.36-1.54-4.39v-6.56h-2.01v-4.19h2.01
		v-4.02h5.05v4.02h3.31v4.19h-3.31v6.62c0,0.49,0.12,0.85,0.35,1.06c0.24,0.22,0.63,0.33,1.18,0.33H237.49z"/>
	<path class="st0" d="M240.25,58.9c0.64-1.28,1.51-2.26,2.61-2.95c1.1-0.69,2.33-1.03,3.69-1.03c1.16,0,2.18,0.24,3.06,0.71
		s1.55,1.09,2.02,1.86v-2.33h5.05v16.48h-5.05v-2.33c-0.49,0.77-1.18,1.39-2.05,1.86s-1.9,0.71-3.06,0.71
		c-1.34,0-2.56-0.35-3.66-1.05c-1.1-0.7-1.97-1.69-2.61-2.98c-0.64-1.29-0.96-2.78-0.96-4.47C239.29,61.66,239.61,60.17,240.25,58.9
		z M250.59,60.4c-0.7-0.73-1.55-1.09-2.55-1.09s-1.86,0.36-2.55,1.08s-1.05,1.71-1.05,2.97c0,1.26,0.35,2.26,1.05,3
		s1.55,1.11,2.55,1.11s1.86-0.36,2.55-1.09s1.05-1.72,1.05-2.98C251.64,62.12,251.29,61.13,250.59,60.4z"/>
	<path class="st0" d="M267.61,55.75c0.89-0.52,1.87-0.78,2.95-0.78v5.35h-1.39c-1.26,0-2.21,0.27-2.84,0.81
		c-0.63,0.54-0.94,1.49-0.94,2.85v7.65h-5.05V55.14h5.05v2.75C265.99,56.98,266.73,56.27,267.61,55.75z"/>
	<path class="st0" d="M273.36,52.65c-0.56-0.52-0.84-1.17-0.84-1.93c0-0.79,0.28-1.44,0.84-1.96c0.56-0.52,1.28-0.78,2.17-0.78
		c0.87,0,1.58,0.26,2.14,0.78c0.56,0.52,0.84,1.18,0.84,1.96c0,0.77-0.28,1.41-0.84,1.93c-0.56,0.52-1.27,0.78-2.14,0.78
		C274.64,53.43,273.92,53.17,273.36,52.65z M278.04,55.14v16.48h-5.05V55.14H278.04z"/>
	<path class="st0" d="M284.85,70.83c-1.29-0.69-2.3-1.67-3.04-2.95c-0.74-1.28-1.11-2.78-1.11-4.49c0-1.69,0.37-3.18,1.12-4.47
		c0.75-1.29,1.77-2.28,3.07-2.97c1.3-0.69,2.76-1.03,4.37-1.03s3.07,0.34,4.37,1.03c1.3,0.69,2.32,1.68,3.07,2.97
		c0.75,1.29,1.12,2.78,1.12,4.47c0,1.69-0.38,3.19-1.14,4.47c-0.76,1.29-1.79,2.28-3.1,2.97c-1.31,0.69-2.77,1.03-4.39,1.03
		C287.59,71.86,286.14,71.52,284.85,70.83z M291.67,66.43c0.68-0.71,1.02-1.72,1.02-3.04c0-1.32-0.33-2.33-0.99-3.04
		c-0.66-0.71-1.47-1.06-2.44-1.06c-0.98,0-1.8,0.35-2.45,1.05c-0.65,0.7-0.97,1.72-0.97,3.06c0,1.32,0.32,2.33,0.96,3.04
		c0.64,0.71,1.44,1.06,2.41,1.06C290.17,67.49,290.99,67.13,291.67,66.43z"/>
	<path class="st0" d="M303.38,71.12c-1.12-0.49-2.01-1.17-2.66-2.02c-0.65-0.86-1.01-1.82-1.09-2.88h4.99
		c0.06,0.57,0.32,1.03,0.8,1.39s1.05,0.53,1.74,0.53c0.63,0,1.12-0.12,1.46-0.37c0.34-0.25,0.52-0.57,0.52-0.96
		c0-0.47-0.25-0.82-0.74-1.05c-0.49-0.23-1.29-0.48-2.39-0.75c-1.18-0.28-2.17-0.57-2.95-0.87c-0.79-0.31-1.47-0.79-2.04-1.45
		c-0.57-0.66-0.86-1.55-0.86-2.67c0-0.95,0.26-1.81,0.78-2.58c0.52-0.78,1.29-1.39,2.3-1.85c1.01-0.45,2.22-0.68,3.62-0.68
		c2.07,0,3.7,0.51,4.89,1.54s1.88,2.38,2.05,4.08h-4.67c-0.08-0.57-0.33-1.02-0.75-1.36c-0.42-0.33-0.98-0.5-1.67-0.5
		c-0.59,0-1.04,0.11-1.36,0.34c-0.32,0.23-0.47,0.54-0.47,0.93c0,0.47,0.25,0.83,0.75,1.06s1.29,0.47,2.35,0.71
		c1.22,0.31,2.21,0.63,2.98,0.93c0.77,0.31,1.44,0.8,2.02,1.48c0.58,0.68,0.88,1.59,0.9,2.73c0,0.96-0.27,1.83-0.81,2.58
		c-0.54,0.76-1.32,1.35-2.33,1.79c-1.01,0.43-2.19,0.65-3.53,0.65C305.78,71.86,304.5,71.61,303.38,71.12z"/>
	<path class="st0" d="M341.8,71.62h-5.05l-8.45-12.79v12.79h-5.05V50.89h5.05l8.45,12.85V50.89h5.05V71.62z"/>
	<path class="st0" d="M345.83,52.65c-0.56-0.52-0.84-1.17-0.84-1.93c0-0.79,0.28-1.44,0.84-1.96s1.29-0.78,2.17-0.78
		c0.87,0,1.58,0.26,2.14,0.78c0.56,0.52,0.84,1.18,0.84,1.96c0,0.77-0.28,1.41-0.84,1.93c-0.56,0.52-1.27,0.78-2.14,0.78
		C347.12,53.43,346.39,53.17,345.83,52.65z M350.51,55.14v16.48h-5.05V55.14H350.51z"/>
	<path class="st0" d="M354.22,58.9c0.7-1.28,1.67-2.26,2.92-2.95c1.25-0.69,2.68-1.03,4.3-1.03c2.07,0,3.79,0.54,5.18,1.62
		c1.39,1.08,2.3,2.61,2.73,4.58h-5.38c-0.45-1.26-1.33-1.89-2.63-1.89c-0.93,0-1.66,0.36-2.21,1.08c-0.55,0.72-0.83,1.75-0.83,3.09
		c0,1.34,0.28,2.37,0.83,3.09c0.55,0.72,1.29,1.08,2.21,1.08c1.3,0,2.17-0.63,2.63-1.89h5.38c-0.43,1.93-1.35,3.45-2.75,4.55
		c-1.4,1.1-3.12,1.65-5.17,1.65c-1.62,0-3.05-0.34-4.3-1.03c-1.25-0.69-2.22-1.67-2.92-2.95c-0.7-1.28-1.05-2.78-1.05-4.49
		C353.17,61.67,353.52,60.17,354.22,58.9z"/>
	<path class="st0" d="M388.32,55.14v16.48h-5.05v-2.24c-0.51,0.73-1.21,1.31-2.08,1.76s-1.85,0.66-2.91,0.66
		c-1.26,0-2.37-0.28-3.34-0.84c-0.96-0.56-1.71-1.37-2.25-2.44c-0.53-1.06-0.8-2.31-0.8-3.75v-9.63h5.02v8.95
		c0,1.1,0.29,1.96,0.86,2.57c0.57,0.61,1.34,0.92,2.3,0.92c0.98,0,1.76-0.31,2.33-0.92c0.57-0.61,0.86-1.47,0.86-2.57v-8.95H388.32z
		"/>
	<path class="st0" d="M407.39,64.59h-11.43c0.08,1.02,0.41,1.81,0.99,2.35c0.58,0.54,1.29,0.81,2.14,0.81
		c1.26,0,2.14-0.53,2.63-1.59h5.38c-0.28,1.08-0.77,2.06-1.49,2.92c-0.72,0.87-1.62,1.55-2.7,2.04c-1.08,0.49-2.29,0.74-3.63,0.74
		c-1.61,0-3.05-0.34-4.31-1.03c-1.26-0.69-2.25-1.67-2.95-2.95c-0.71-1.28-1.06-2.78-1.06-4.49c0-1.71,0.35-3.21,1.05-4.49
		c0.7-1.28,1.68-2.26,2.94-2.95c1.26-0.69,2.71-1.03,4.34-1.03c1.59,0,3.01,0.33,4.25,1c1.24,0.67,2.21,1.63,2.91,2.87
		c0.7,1.24,1.05,2.69,1.05,4.34C407.48,63.59,407.45,64.08,407.39,64.59z M402.31,61.79c0-0.87-0.29-1.55-0.89-2.07
		c-0.59-0.51-1.33-0.77-2.21-0.77c-0.85,0-1.56,0.25-2.14,0.74c-0.58,0.49-0.94,1.19-1.08,2.1H402.31z"/>
	<path class="st0" d="M413,71.12c-1.12-0.49-2.01-1.17-2.66-2.02c-0.65-0.86-1.01-1.82-1.09-2.88h4.99c0.06,0.57,0.32,1.03,0.8,1.39
		s1.05,0.53,1.74,0.53c0.63,0,1.12-0.12,1.46-0.37c0.34-0.25,0.52-0.57,0.52-0.96c0-0.47-0.25-0.82-0.74-1.05
		c-0.49-0.23-1.29-0.48-2.39-0.75c-1.18-0.28-2.17-0.57-2.95-0.87c-0.79-0.31-1.47-0.79-2.04-1.45c-0.57-0.66-0.86-1.55-0.86-2.67
		c0-0.95,0.26-1.81,0.78-2.58c0.52-0.78,1.29-1.39,2.3-1.85c1.01-0.45,2.22-0.68,3.62-0.68c2.07,0,3.7,0.51,4.89,1.54
		s1.88,2.38,2.05,4.08h-4.67c-0.08-0.57-0.33-1.02-0.75-1.36c-0.42-0.33-0.98-0.5-1.67-0.5c-0.59,0-1.04,0.11-1.36,0.34
		c-0.32,0.23-0.47,0.54-0.47,0.93c0,0.47,0.25,0.83,0.75,1.06s1.29,0.47,2.35,0.71c1.22,0.31,2.21,0.63,2.98,0.93
		c0.77,0.31,1.44,0.8,2.02,1.48c0.58,0.68,0.88,1.59,0.9,2.73c0,0.96-0.27,1.83-0.81,2.58c-0.54,0.76-1.32,1.35-2.33,1.79
		c-1.01,0.43-2.19,0.65-3.53,0.65C415.41,71.86,414.13,71.61,413,71.12z"/>
	<path class="st0" d="M426.58,58.9c0.64-1.28,1.51-2.26,2.61-2.95c1.1-0.69,2.33-1.03,3.69-1.03c1.16,0,2.18,0.24,3.06,0.71
		s1.55,1.09,2.02,1.86v-2.33h5.05v16.48h-5.05v-2.33c-0.49,0.77-1.18,1.39-2.05,1.86s-1.9,0.71-3.06,0.71
		c-1.34,0-2.56-0.35-3.66-1.05c-1.1-0.7-1.97-1.69-2.61-2.98c-0.64-1.29-0.96-2.78-0.96-4.47C425.62,61.66,425.94,60.17,426.58,58.9
		z M436.91,60.4c-0.7-0.73-1.55-1.09-2.55-1.09c-1,0-1.86,0.36-2.55,1.08c-0.7,0.72-1.05,1.71-1.05,2.97c0,1.26,0.35,2.26,1.05,3
		c0.7,0.74,1.55,1.11,2.55,1.11c1,0,1.86-0.36,2.55-1.09s1.05-1.72,1.05-2.98C437.96,62.12,437.61,61.13,436.91,60.4z"/>
	<path class="st0" d="M468.38,64.59h-11.43c0.08,1.02,0.41,1.81,0.99,2.35c0.58,0.54,1.29,0.81,2.14,0.81
		c1.26,0,2.14-0.53,2.63-1.59h5.38c-0.28,1.08-0.77,2.06-1.49,2.92c-0.72,0.87-1.62,1.55-2.7,2.04c-1.08,0.49-2.29,0.74-3.63,0.74
		c-1.61,0-3.05-0.34-4.31-1.03c-1.26-0.69-2.25-1.67-2.95-2.95c-0.71-1.28-1.06-2.78-1.06-4.49c0-1.71,0.35-3.21,1.05-4.49
		c0.7-1.28,1.68-2.26,2.94-2.95c1.26-0.69,2.71-1.03,4.34-1.03c1.59,0,3.01,0.33,4.25,1c1.24,0.67,2.21,1.63,2.91,2.87
		c0.7,1.24,1.05,2.69,1.05,4.34C468.47,63.59,468.44,64.08,468.38,64.59z M463.3,61.79c0-0.87-0.29-1.55-0.89-2.07
		c-0.59-0.51-1.33-0.77-2.21-0.77c-0.85,0-1.56,0.25-2.14,0.74c-0.58,0.49-0.94,1.19-1.08,2.1H463.3z"/>
	<path class="st0" d="M495.34,50.89v20.73h-5.05v-8.54h-7.86v8.54h-5.05V50.89h5.05v8.12h7.86v-8.12H495.34z"/>
	<path class="st0" d="M499.34,52.65c-0.56-0.52-0.84-1.17-0.84-1.93c0-0.79,0.28-1.44,0.84-1.96s1.29-0.78,2.17-0.78
		c0.87,0,1.58,0.26,2.14,0.78c0.56,0.52,0.84,1.18,0.84,1.96c0,0.77-0.28,1.41-0.84,1.93c-0.56,0.52-1.27,0.78-2.14,0.78
		C500.63,53.43,499.91,53.17,499.34,52.65z M504.02,55.14v16.48h-5.05V55.14H504.02z"/>
	<path class="st0" d="M512.74,73.75c0,2.03-0.51,3.49-1.54,4.39c-1.02,0.9-2.45,1.34-4.28,1.34h-1.98V75.2h1.21
		c0.55,0,0.95-0.11,1.18-0.32c0.24-0.22,0.35-0.57,0.35-1.06V55.14h5.05V73.75z M508.03,52.65c-0.56-0.52-0.84-1.17-0.84-1.93
		c0-0.79,0.28-1.44,0.84-1.96c0.56-0.52,1.28-0.78,2.17-0.78c0.87,0,1.58,0.26,2.14,0.78c0.56,0.52,0.84,1.18,0.84,1.96
		c0,0.77-0.28,1.41-0.84,1.93c-0.56,0.52-1.27,0.78-2.14,0.78C509.31,53.43,508.59,53.17,508.03,52.65z"/>
	<path class="st0" d="M519.51,70.83c-1.29-0.69-2.3-1.67-3.04-2.95c-0.74-1.28-1.11-2.78-1.11-4.49c0-1.69,0.37-3.18,1.12-4.47
		c0.75-1.29,1.77-2.28,3.07-2.97c1.3-0.69,2.76-1.03,4.37-1.03s3.07,0.34,4.37,1.03c1.3,0.69,2.32,1.68,3.07,2.97
		c0.75,1.29,1.12,2.78,1.12,4.47c0,1.69-0.38,3.19-1.14,4.47c-0.76,1.29-1.79,2.28-3.1,2.97c-1.31,0.69-2.77,1.03-4.39,1.03
		S520.8,71.52,519.51,70.83z M526.34,66.43c0.68-0.71,1.02-1.72,1.02-3.04c0-1.32-0.33-2.33-0.99-3.04
		c-0.66-0.71-1.47-1.06-2.44-1.06c-0.98,0-1.8,0.35-2.45,1.05c-0.65,0.7-0.97,1.72-0.97,3.06c0,1.32,0.32,2.33,0.96,3.04
		c0.64,0.71,1.44,1.06,2.41,1.06S525.66,67.13,526.34,66.43z"/>
	<path class="st0" d="M538.05,71.12c-1.12-0.49-2.01-1.17-2.66-2.02c-0.65-0.86-1.01-1.82-1.09-2.88h4.99
		c0.06,0.57,0.32,1.03,0.8,1.39s1.05,0.53,1.74,0.53c0.63,0,1.12-0.12,1.46-0.37c0.34-0.25,0.52-0.57,0.52-0.96
		c0-0.47-0.25-0.82-0.74-1.05c-0.49-0.23-1.29-0.48-2.39-0.75c-1.18-0.28-2.17-0.57-2.95-0.87c-0.79-0.31-1.47-0.79-2.04-1.45
		c-0.57-0.66-0.86-1.55-0.86-2.67c0-0.95,0.26-1.81,0.78-2.58c0.52-0.78,1.29-1.39,2.3-1.85c1.01-0.45,2.22-0.68,3.62-0.68
		c2.07,0,3.7,0.51,4.89,1.54s1.88,2.38,2.05,4.08h-4.67c-0.08-0.57-0.33-1.02-0.75-1.36c-0.42-0.33-0.98-0.5-1.67-0.5
		c-0.59,0-1.04,0.11-1.36,0.34c-0.32,0.23-0.47,0.54-0.47,0.93c0,0.47,0.25,0.83,0.75,1.06s1.29,0.47,2.35,0.71
		c1.22,0.31,2.21,0.63,2.98,0.93c0.77,0.31,1.44,0.8,2.02,1.48c0.58,0.68,0.88,1.59,0.9,2.73c0,0.96-0.27,1.83-0.81,2.58
		c-0.54,0.76-1.32,1.35-2.33,1.79c-1.01,0.43-2.19,0.65-3.53,0.65C540.45,71.86,539.17,71.61,538.05,71.12z"/>
</g>
<g>
	<path class="st0" d="M133.93,20.14c0.21,6.59,0.3,13.18,0.38,19.77c0.08,6.59,0.07,13.18,0.12,19.77l-0.11,19.77l-0.14,9.88
		c-0.08,3.29-0.13,6.59-0.25,9.88c-0.11-3.29-0.16-6.59-0.25-9.88l-0.14-9.88l-0.11-19.77c0.04-6.59,0.03-13.18,0.12-19.77
		C133.63,33.32,133.72,26.73,133.93,20.14z"/>
</g>
<g>
	<path class="st0" d="M47.04,57.98c4.36-0.26,8.73-0.4,13.09-0.58c4.36-0.19,8.73-0.29,13.09-0.42l13.09-0.27l13.09-0.16l0.31,0
		l0.25,0.12c0.5,0.24,0.65,0.45,0.83,0.62c0.16,0.18,0.27,0.34,0.38,0.51c0.2,0.32,0.36,0.64,0.49,0.96
		c0.25,0.66,0.46,1.34,0.37,2.3c-0.05,0.47-0.26,1.11-0.77,1.59l-0.23,0.2c-0.02,0.02-0.05,0.04-0.07,0.06
		c-0.04,0.04-0.08,0.09-0.12,0.13c-0.07,0.09-0.13,0.2-0.17,0.32c-0.02,0.06-0.04,0.12-0.05,0.19c-0.01,0.04-0.02,0.17-0.02,0.1
		l-0.5-1.07c0.06,0.05,0.15,0.14,0.16,0.16l0.06,0.08c0.04,0.05,0.08,0.11,0.1,0.14c0.04,0.07,0.1,0.16,0.12,0.22
		c0.05,0.12,0.11,0.26,0.13,0.35c0.07,0.22,0.09,0.39,0.11,0.57c0.03,0.33,0.03,0.62,0.01,0.89c-0.04,0.55-0.14,1.01-0.25,1.47
		c-0.23,0.91-0.53,1.75-0.85,2.56c-0.16,0.41-0.33,0.81-0.51,1.2c-0.15,0.35-0.41,0.91-0.7,1.32c-0.58,0.87-1.3,1.57-2.06,2.15
		c-1.52,1.16-3.16,1.91-4.81,2.51c-1.65,0.61-3.32,1.06-5,1.43c-3.35,0.74-6.72,1.17-10.1,1.45c-0.86,0.06-1.5,0.13-2.17,0.32
		c-0.65,0.18-1.22,0.47-1.65,0.85c-0.43,0.38-0.74,0.87-0.91,1.45c-0.09,0.29-0.15,0.6-0.16,0.93c-0.02,0.3,0,0.7,0.03,0.9
		l0.03,0.21l-0.01,0.16c-0.07,1.38,0.13,3,0.58,4.39c0.46,1.41,1.18,2.71,2.19,3.73c0.5,0.51,1.08,0.95,1.71,1.32
		c0.68,0.39,1.47,0.84,2.19,1.3c0.73,0.49,1.45,1,2.13,1.64c0.34,0.32,0.67,0.69,0.97,1.14c0.15,0.24,0.29,0.5,0.39,0.83
		c0.05,0.17,0.09,0.36,0.1,0.57c0,0.11,0,0.23-0.02,0.36c-0.04,0.16-0.02,0.22-0.19,0.53l-0.28,0.52l-0.62-0.01l-8.51-0.19
		c-2.84-0.06-5.67-0.14-8.51-0.24c-5.67-0.2-11.34-0.34-17.02-0.62c5.67-0.28,11.34-0.42,17.02-0.62c2.84-0.1,5.67-0.18,8.51-0.24
		l8.51-0.19l-0.9,0.51c-0.12,0.22-0.08,0.18-0.1,0.24c-0.01,0.03-0.01,0.04-0.01,0.05c0,0.01-0.01,0-0.02-0.04
		c-0.02-0.06-0.08-0.17-0.15-0.28c-0.17-0.23-0.4-0.48-0.67-0.71c-0.54-0.48-1.19-0.91-1.85-1.32c-0.69-0.41-1.35-0.76-2.12-1.16
		c-0.82-0.44-1.59-0.99-2.27-1.63c-1.38-1.29-2.35-2.95-2.93-4.67c-0.3-0.86-0.51-1.75-0.64-2.64c-0.13-0.91-0.21-1.75-0.17-2.76
		l0.02,0.37c-0.11-0.62-0.12-1.06-0.11-1.59c0.02-0.51,0.1-1.03,0.24-1.54c0.27-1.02,0.85-2.02,1.66-2.76
		c1.63-1.5,3.78-1.88,5.47-1.99c3.27-0.29,6.53-0.73,9.69-1.45c3.12-0.73,6.3-1.72,8.64-3.44c0.57-0.43,1.06-0.91,1.4-1.43
		c0.3-0.43,0.65-1.27,0.94-1.98c0.3-0.73,0.57-1.47,0.74-2.17c0.08-0.34,0.16-0.7,0.18-0.99c0.01-0.15,0.01-0.27,0.01-0.36
		c-0.01-0.03-0.01-0.07-0.01-0.05c0-0.01,0.01,0.03,0.03,0.06c0.01,0.01,0.03,0.06,0.05,0.09l0.06,0.08l0.04,0.05
		c0.01,0.01,0.09,0.1,0.13,0.13l-0.5-1.07c0-0.35,0.03-0.49,0.07-0.71c0.04-0.2,0.09-0.4,0.16-0.6c0.14-0.39,0.34-0.77,0.59-1.11
		c0.13-0.17,0.27-0.33,0.42-0.47c0.07-0.08,0.16-0.14,0.24-0.21l0.12-0.1c-0.01,0.01-0.03,0.02-0.04,0.03
		c-0.12,0.11-0.12,0.21-0.11,0.15c0.03-0.12-0.03-0.53-0.18-0.87c-0.07-0.18-0.16-0.35-0.24-0.49c-0.04-0.07-0.08-0.12-0.11-0.15
		c-0.01-0.03-0.05-0.01,0.2,0.11l0.56,0.11l-13.09-0.16l-13.09-0.27c-4.36-0.13-8.73-0.23-13.09-0.42
		C55.77,58.38,51.4,58.24,47.04,57.98z"/>
</g>
<g>
	<path class="st0" d="M41.34,21.19c2.28-0.85,4.65-1.42,7.1-1.75c1.23-0.15,2.47-0.22,3.75-0.16c1.27,0.07,2.59,0.27,3.89,0.88
		c1.3,0.54,2.61,1.88,2.92,3.47c0.11,0.39,0.12,0.76,0.16,1.15l0.03,0.92l0.05,1.8l0.08,7.2l-0.08,7.21
		c-0.08,2.4-0.11,4.81-0.25,7.21c-0.06,1.2-0.11,2.4-0.19,3.61l-0.06,0.9c-0.02,0.23-0.03,0.78-0.16,1.13
		c-0.23,0.76-0.7,1.38-1.23,1.84c-1.11,0.92-2.4,1.27-3.63,1.43c-1.24,0.16-2.47,0.07-3.67-0.06c1.2-0.19,2.39-0.38,3.49-0.75
		c1.09-0.37,2.15-0.89,2.78-1.67c0.31-0.38,0.54-0.8,0.6-1.21c0.05-0.27-0.05-0.98-0.07-1.56c-0.08-1.2-0.12-2.4-0.19-3.61
		c-0.14-2.4-0.17-4.81-0.25-7.22l-0.08-7.22l0.08-7.23l0.05-1.81l0.02-0.88c-0.02-0.21,0.01-0.45-0.05-0.64
		c-0.05-0.42-0.22-0.76-0.45-1.08c-0.22-0.33-0.57-0.63-0.99-0.87c-0.83-0.52-1.92-0.79-3.03-1c-1.11-0.21-2.28-0.29-3.46-0.32
		C46.15,20.83,43.75,20.99,41.34,21.19z"/>
</g>
<g>
	<polygon class="st0" points="99.17,64.68 57.6,63.68 99.17,62.68 	"/>
</g>
</svg>
